<?xml version="1.0" encoding="utf-8"?>
<!-- Svg Vector Icons : http://www.onlinewebfonts.com/icon -->
<!DOCTYPE svg PUBLIC "-//W3C//DTD SVG 1.1//EN" "http://www.w3.org/Graphics/SVG/1.1/DTD/svg11.dtd">
<svg version="1.1" xmlns="http://www.w3.org/2000/svg" xmlns:xlink="http://www.w3.org/1999/xlink" x="0px" y="0px" viewBox="0 0 1000 1000" enable-background="new 0 0 1000 1000" xml:space="preserve">
<metadata> Svg Vector Icons : http://www.onlinewebfonts.com/icon </metadata>
<g><path d="M755.5,465c-2.7-2.7-5.7-5.1-8.9-7l-434-433.9c-18.8-18.8-49.3-18.8-68.1,0c-18.8,18.8-18.8,49.3,0,68.1L652.4,500L244.5,907.8c-18.8,18.8-18.8,49.3,0,68.1c18.8,18.8,49.3,18.8,68.1,0l434-433.9c3.1-1.9,6.1-4.3,8.8-7c9.6-9.6,14.3-22.4,14.1-35C769.8,487.4,765.1,474.6,755.5,465z"/></g>
</svg>